# Blender v2.92.0 OBJ File: 'cubeanim.blend'
# www.blender.org
v -1.412781 0.009175 0.412424
v -1.395773 2.009085 0.420894
v 0.062047 0.002354 -0.938441
v 0.079055 2.002264 -0.929971
v -0.062006 -0.008559 1.887244
v -0.044998 1.991351 1.895714
v 1.412822 -0.015380 0.536379
v 1.429830 1.984530 0.544849
vt 0.625000 0.000000
vt 0.375000 0.250000
vt 0.375000 0.000000
vt 0.625000 0.250000
vt 0.375000 0.500000
vt 0.625000 0.500000
vt 0.375000 0.750000
vt 0.625000 0.750000
vt 0.375000 1.000000
vt 0.125000 0.750000
vt 0.125000 0.500000
vt 0.875000 0.500000
vt 0.625000 1.000000
vt 0.875000 0.750000
vn -0.6754 0.0089 -0.7374
vn 0.7374 -0.0034 -0.6754
vn 0.6754 -0.0089 0.7374
vn -0.7374 0.0034 0.6754
vn -0.0085 -1.0000 -0.0042
vn 0.0085 1.0000 0.0042
s off
f 2/1/1 3/2/1 1/3/1
f 4/4/2 7/5/2 3/2/2
f 8/6/3 5/7/3 7/5/3
f 6/8/4 1/9/4 5/7/4
f 7/5/5 1/10/5 3/11/5
f 4/12/6 6/8/6 8/6/6
f 2/1/1 4/4/1 3/2/1
f 4/4/2 8/6/2 7/5/2
f 8/6/3 6/8/3 5/7/3
f 6/8/4 2/13/4 1/9/4
f 7/5/5 5/7/5 1/10/5
f 4/12/6 2/14/6 6/8/6
v -10.000000 0.000000 10.000000
v 10.000000 0.000000 10.000000
v -10.000000 0.000000 -10.000000
v 10.000000 0.000000 -10.000000
vt 1.000000 0.000000
vt 0.000000 1.000000
vt 0.000000 0.000000
vt 1.000000 1.000000
vn 0.0000 1.0000 0.0000
s off
f 10/15/7 11/16/7 9/17/7
f 10/15/7 12/18/7 11/16/7
