# Blender v2.92.0 OBJ File: 'cubeanim.blend'
# www.blender.org
v -4.252250 -0.009335 -1.828425
v -4.261345 1.990633 -1.835359
v -5.253711 -0.019891 -3.559600
v -5.262806 1.980076 -3.566534
v -2.521067 -0.004934 -2.829917
v -2.530162 1.995033 -2.836852
v -3.522528 -0.015491 -4.561092
v -3.531623 1.984477 -4.568026
vt 0.625000 0.000000
vt 0.375000 0.250000
vt 0.375000 0.000000
vt 0.625000 0.250000
vt 0.375000 0.500000
vt 0.625000 0.500000
vt 0.375000 0.750000
vt 0.625000 0.750000
vt 0.375000 1.000000
vt 0.125000 0.750000
vt 0.125000 0.500000
vt 0.875000 0.500000
vt 0.625000 1.000000
vt 0.875000 0.750000
vn -0.8656 -0.0022 0.5007
vn -0.5007 -0.0053 -0.8656
vn 0.8656 0.0022 -0.5007
vn 0.5007 0.0053 0.8656
vn 0.0045 -1.0000 0.0035
vn -0.0045 1.0000 -0.0035
s off
f 2/1/1 3/2/1 1/3/1
f 4/4/2 7/5/2 3/2/2
f 8/6/3 5/7/3 7/5/3
f 6/8/4 1/9/4 5/7/4
f 7/5/5 1/10/5 3/11/5
f 4/12/6 6/8/6 8/6/6
f 2/1/1 4/4/1 3/2/1
f 4/4/2 8/6/2 7/5/2
f 8/6/3 6/8/3 5/7/3
f 6/8/4 2/13/4 1/9/4
f 7/5/5 5/7/5 1/10/5
f 4/12/6 2/14/6 6/8/6
v -10.000000 0.000000 10.000000
v 10.000000 0.000000 10.000000
v -10.000000 0.000000 -10.000000
v 10.000000 0.000000 -10.000000
vt 1.000000 0.000000
vt 0.000000 1.000000
vt 0.000000 0.000000
vt 1.000000 1.000000
vn 0.0000 1.0000 0.0000
s off
f 10/15/7 11/16/7 9/17/7
f 10/15/7 12/18/7 11/16/7
