# Blender v2.92.0 OBJ File: 'cubeanim.blend'
# www.blender.org
v -1.880650 0.006903 0.198759
v -1.864331 2.006833 0.202280
v -0.648779 -0.000375 -1.376817
v -0.632460 1.999555 -1.373296
v -0.305141 -0.008122 1.430646
v -0.288822 1.991808 1.434167
v 0.926730 -0.015400 -0.144930
v 0.943049 1.984530 -0.141409
vt 0.625000 0.000000
vt 0.375000 0.250000
vt 0.375000 0.000000
vt 0.625000 0.250000
vt 0.375000 0.500000
vt 0.625000 0.500000
vt 0.375000 0.750000
vt 0.625000 0.750000
vt 0.375000 1.000000
vt 0.125000 0.750000
vt 0.125000 0.500000
vt 0.875000 0.500000
vt 0.625000 1.000000
vt 0.875000 0.750000
vn -0.7878 0.0075 -0.6159
vn 0.6159 -0.0036 -0.7878
vn 0.7878 -0.0075 0.6159
vn -0.6159 0.0036 0.7878
vn -0.0082 -1.0000 -0.0018
vn 0.0082 1.0000 0.0018
s off
f 2/1/1 3/2/1 1/3/1
f 4/4/2 7/5/2 3/2/2
f 8/6/3 5/7/3 7/5/3
f 6/8/4 1/9/4 5/7/4
f 7/5/5 1/10/5 3/11/5
f 4/12/6 6/8/6 8/6/6
f 2/1/1 4/4/1 3/2/1
f 4/4/2 8/6/2 7/5/2
f 8/6/3 6/8/3 5/7/3
f 6/8/4 2/13/4 1/9/4
f 7/5/5 5/7/5 1/10/5
f 4/12/6 2/14/6 6/8/6
v -10.000000 0.000000 10.000000
v 10.000000 0.000000 10.000000
v -10.000000 0.000000 -10.000000
v 10.000000 0.000000 -10.000000
vt 1.000000 0.000000
vt 0.000000 1.000000
vt 0.000000 0.000000
vt 1.000000 1.000000
vn 0.0000 1.0000 0.0000
s off
f 10/15/7 11/16/7 9/17/7
f 10/15/7 12/18/7 11/16/7
