# Blender v2.92.0 OBJ File: 'cubeanim.blend'
# www.blender.org
v 1.868591 0.015186 1.806545
v 1.866844 2.014912 1.839612
v 3.835496 0.010914 2.168852
v 3.833749 2.010640 2.201919
v 1.506263 -0.017650 3.773177
v 1.504515 1.982075 3.806243
v 3.473168 -0.021922 4.135484
v 3.471420 1.977803 4.168550
vt 0.625000 0.000000
vt 0.375000 0.250000
vt 0.375000 0.000000
vt 0.625000 0.250000
vt 0.375000 0.500000
vt 0.625000 0.500000
vt 0.375000 0.750000
vt 0.625000 0.750000
vt 0.375000 1.000000
vt 0.125000 0.750000
vt 0.125000 0.500000
vt 0.875000 0.500000
vt 0.625000 1.000000
vt 0.875000 0.750000
vn 0.1812 0.0164 -0.9833
vn 0.9835 -0.0021 0.1812
vn -0.1812 -0.0164 0.9833
vn -0.9835 0.0021 -0.1812
vn 0.0009 -0.9999 -0.0165
vn -0.0009 0.9999 0.0165
s off
f 2/1/1 3/2/1 1/3/1
f 4/4/2 7/5/2 3/2/2
f 8/6/3 5/7/3 7/5/3
f 6/8/4 1/9/4 5/7/4
f 7/5/5 1/10/5 3/11/5
f 4/12/6 6/8/6 8/6/6
f 2/1/1 4/4/1 3/2/1
f 4/4/2 8/6/2 7/5/2
f 8/6/3 6/8/3 5/7/3
f 6/8/4 2/13/4 1/9/4
f 7/5/5 5/7/5 1/10/5
f 4/12/6 2/14/6 6/8/6
v -10.000000 0.000000 10.000000
v 10.000000 0.000000 10.000000
v -10.000000 0.000000 -10.000000
v 10.000000 0.000000 -10.000000
vt 1.000000 0.000000
vt 0.000000 1.000000
vt 0.000000 0.000000
vt 1.000000 1.000000
vn 0.0000 1.0000 0.0000
s off
f 10/15/7 11/16/7 9/17/7
f 10/15/7 12/18/7 11/16/7
