# Blender v2.92.0 OBJ File: 'cubeanim.blend'
# www.blender.org
v -3.936339 -0.006555 -1.375702
v -3.940500 1.993420 -1.384851
v -4.566535 -0.016549 -3.273794
v -4.570696 1.983426 -3.282943
v -2.038225 -0.005488 -2.005910
v -2.042387 1.994487 -2.015059
v -2.668421 -0.015482 -3.904002
v -2.672582 1.984493 -3.913151
vt 0.625000 0.000000
vt 0.375000 0.250000
vt 0.375000 0.000000
vt 0.625000 0.250000
vt 0.375000 0.500000
vt 0.625000 0.500000
vt 0.375000 0.750000
vt 0.625000 0.750000
vt 0.375000 1.000000
vt 0.125000 0.750000
vt 0.125000 0.500000
vt 0.875000 0.500000
vt 0.625000 1.000000
vt 0.875000 0.750000
vn -0.9491 -0.0005 0.3151
vn -0.3151 -0.0050 -0.9490
vn 0.9491 0.0005 -0.3151
vn 0.3151 0.0050 0.9490
vn 0.0021 -1.0000 0.0046
vn -0.0021 1.0000 -0.0046
s off
f 2/1/1 3/2/1 1/3/1
f 4/4/2 7/5/2 3/2/2
f 8/6/3 5/7/3 7/5/3
f 6/8/4 1/9/4 5/7/4
f 7/5/5 1/10/5 3/11/5
f 4/12/6 6/8/6 8/6/6
f 2/1/1 4/4/1 3/2/1
f 4/4/2 8/6/2 7/5/2
f 8/6/3 6/8/3 5/7/3
f 6/8/4 2/13/4 1/9/4
f 7/5/5 5/7/5 1/10/5
f 4/12/6 2/14/6 6/8/6
v -10.000000 0.000000 10.000000
v 10.000000 0.000000 10.000000
v -10.000000 0.000000 -10.000000
v 10.000000 0.000000 -10.000000
vt 1.000000 0.000000
vt 0.000000 1.000000
vt 0.000000 0.000000
vt 1.000000 1.000000
vn 0.0000 1.0000 0.0000
s off
f 10/15/7 11/16/7 9/17/7
f 10/15/7 12/18/7 11/16/7
