# Blender v2.92.0 OBJ File: 'cubeanim.blend'
# www.blender.org
v -0.488350 0.005674 0.798728
v -0.473169 2.005538 0.816428
v 1.314094 -0.000337 -0.067967
v 1.329275 1.999527 -0.050267
v 0.378233 -0.016856 2.601095
v 0.393413 1.983008 2.618795
v 2.180676 -0.022867 1.734401
v 2.195858 1.976997 1.752101
vt 0.625000 0.000000
vt 0.375000 0.250000
vt 0.375000 0.000000
vt 0.625000 0.250000
vt 0.375000 0.500000
vt 0.625000 0.500000
vt 0.375000 0.750000
vt 0.625000 0.750000
vt 0.375000 1.000000
vt 0.125000 0.750000
vt 0.125000 0.500000
vt 0.875000 0.500000
vt 0.625000 1.000000
vt 0.875000 0.750000
vn -0.4333 0.0113 -0.9012
vn 0.9012 -0.0030 -0.4333
vn 0.4333 -0.0113 0.9012
vn -0.9012 0.0030 0.4333
vn -0.0076 -0.9999 -0.0088
vn 0.0076 0.9999 0.0088
s off
f 2/1/1 3/2/1 1/3/1
f 4/4/2 7/5/2 3/2/2
f 8/6/3 5/7/3 7/5/3
f 6/8/4 1/9/4 5/7/4
f 7/5/5 1/10/5 3/11/5
f 4/12/6 6/8/6 8/6/6
f 2/1/1 4/4/1 3/2/1
f 4/4/2 8/6/2 7/5/2
f 8/6/3 6/8/3 5/7/3
f 6/8/4 2/13/4 1/9/4
f 7/5/5 5/7/5 1/10/5
f 4/12/6 2/14/6 6/8/6
v -10.000000 0.000000 10.000000
v 10.000000 0.000000 10.000000
v -10.000000 0.000000 -10.000000
v 10.000000 0.000000 -10.000000
vt 1.000000 0.000000
vt 0.000000 1.000000
vt 0.000000 0.000000
vt 1.000000 1.000000
vn 0.0000 1.0000 0.0000
s off
f 10/15/7 11/16/7 9/17/7
f 10/15/7 12/18/7 11/16/7
