# Blender v2.92.0 OBJ File: 'cubeanim.blend'
# www.blender.org
v -2.614314 -0.002134 -0.195790
v -2.601851 1.997823 -0.199629
v -1.890657 -0.010222 -2.060262
v -1.878195 1.989736 -2.064101
v -0.749865 -0.012363 0.527901
v -0.737403 1.987595 0.524062
v -0.026209 -0.020450 -1.336571
v -0.013747 1.979507 -1.340410
vt 0.625000 0.000000
vt 0.375000 0.250000
vt 0.375000 0.000000
vt 0.625000 0.250000
vt 0.375000 0.500000
vt 0.625000 0.500000
vt 0.375000 0.750000
vt 0.625000 0.750000
vt 0.375000 1.000000
vt 0.125000 0.750000
vt 0.125000 0.500000
vt 0.875000 0.500000
vt 0.625000 1.000000
vt 0.875000 0.750000
vn -0.9322 0.0051 -0.3618
vn 0.3618 -0.0040 -0.9322
vn 0.9322 -0.0051 0.3618
vn -0.3618 0.0040 0.9322
vn -0.0062 -1.0000 0.0019
vn 0.0062 1.0000 -0.0019
s off
f 2/1/1 3/2/1 1/3/1
f 4/4/2 7/5/2 3/2/2
f 8/6/3 5/7/3 7/5/3
f 6/8/4 1/9/4 5/7/4
f 7/5/5 1/10/5 3/11/5
f 4/12/6 6/8/6 8/6/6
f 2/1/1 4/4/1 3/2/1
f 4/4/2 8/6/2 7/5/2
f 8/6/3 6/8/3 5/7/3
f 6/8/4 2/13/4 1/9/4
f 7/5/5 5/7/5 1/10/5
f 4/12/6 2/14/6 6/8/6
v -10.000000 0.000000 10.000000
v 10.000000 0.000000 10.000000
v -10.000000 0.000000 -10.000000
v 10.000000 0.000000 -10.000000
vt 1.000000 0.000000
vt 0.000000 1.000000
vt 0.000000 0.000000
vt 1.000000 1.000000
vn 0.0000 1.0000 0.0000
s off
f 10/15/7 11/16/7 9/17/7
f 10/15/7 12/18/7 11/16/7
