# Blender v2.92.0 OBJ File: 'cubeanim.blend'
# www.blender.org
v -3.765428 -0.005132 -1.165157
v -3.766888 1.994844 -1.174774
v -4.194700 -0.014839 -3.118521
v -4.196160 1.985138 -3.128138
v -1.812040 -0.005770 -1.594432
v -1.813500 1.994206 -1.604049
v -2.241313 -0.015477 -3.547796
v -2.242773 1.984500 -3.557413
vt 0.625000 0.000000
vt 0.375000 0.250000
vt 0.375000 0.000000
vt 0.625000 0.250000
vt 0.375000 0.500000
vt 0.625000 0.500000
vt 0.375000 0.750000
vt 0.625000 0.750000
vt 0.375000 1.000000
vt 0.125000 0.750000
vt 0.125000 0.500000
vt 0.875000 0.500000
vt 0.625000 1.000000
vt 0.875000 0.750000
vn -0.9767 0.0003 0.2146
vn -0.2146 -0.0049 -0.9767
vn 0.9767 -0.0003 -0.2146
vn 0.2146 0.0049 0.9767
vn 0.0007 -1.0000 0.0048
vn -0.0007 1.0000 -0.0048
s off
f 2/1/1 3/2/1 1/3/1
f 4/4/2 7/5/2 3/2/2
f 8/6/3 5/7/3 7/5/3
f 6/8/4 1/9/4 5/7/4
f 7/5/5 1/10/5 3/11/5
f 4/12/6 6/8/6 8/6/6
f 2/1/1 4/4/1 3/2/1
f 4/4/2 8/6/2 7/5/2
f 8/6/3 6/8/3 5/7/3
f 6/8/4 2/13/4 1/9/4
f 7/5/5 5/7/5 1/10/5
f 4/12/6 2/14/6 6/8/6
v -10.000000 0.000000 10.000000
v 10.000000 0.000000 10.000000
v -10.000000 0.000000 -10.000000
v 10.000000 0.000000 -10.000000
vt 1.000000 0.000000
vt 0.000000 1.000000
vt 0.000000 0.000000
vt 1.000000 1.000000
vn 0.0000 1.0000 0.0000
s off
f 10/15/7 11/16/7 9/17/7
f 10/15/7 12/18/7 11/16/7
