# Blender v2.92.0 OBJ File: 'cubeanim.blend'
# www.blender.org
v -4.231167 -0.009144 -1.795547
v -4.239946 1.990824 -1.802685
v -5.208300 -0.019662 -3.540569
v -5.217079 1.980306 -3.547707
v -2.486136 -0.004972 -2.772710
v -2.494915 1.994996 -2.779849
v -3.463269 -0.015490 -4.517732
v -3.472047 1.984478 -4.524871
vt 0.625000 0.000000
vt 0.375000 0.250000
vt 0.375000 0.000000
vt 0.625000 0.250000
vt 0.375000 0.500000
vt 0.625000 0.500000
vt 0.375000 0.750000
vt 0.625000 0.750000
vt 0.375000 1.000000
vt 0.125000 0.750000
vt 0.125000 0.500000
vt 0.875000 0.500000
vt 0.625000 1.000000
vt 0.875000 0.750000
vn -0.8725 -0.0021 0.4886
vn -0.4886 -0.0053 -0.8725
vn 0.8725 0.0021 -0.4886
vn 0.4886 0.0053 0.8725
vn 0.0044 -1.0000 0.0036
vn -0.0044 1.0000 -0.0036
s off
f 2/1/1 3/2/1 1/3/1
f 4/4/2 7/5/2 3/2/2
f 8/6/3 5/7/3 7/5/3
f 6/8/4 1/9/4 5/7/4
f 7/5/5 1/10/5 3/11/5
f 4/12/6 6/8/6 8/6/6
f 2/1/1 4/4/1 3/2/1
f 4/4/2 8/6/2 7/5/2
f 8/6/3 6/8/3 5/7/3
f 6/8/4 2/13/4 1/9/4
f 7/5/5 5/7/5 1/10/5
f 4/12/6 2/14/6 6/8/6
v -10.000000 0.000000 10.000000
v 10.000000 0.000000 10.000000
v -10.000000 0.000000 -10.000000
v 10.000000 0.000000 -10.000000
vt 1.000000 0.000000
vt 0.000000 1.000000
vt 0.000000 0.000000
vt 1.000000 1.000000
vn 0.0000 1.0000 0.0000
s off
f 10/15/7 11/16/7 9/17/7
f 10/15/7 12/18/7 11/16/7
