# Blender v2.92.0 OBJ File: 'cubeanim.blend'
# www.blender.org
v 2.967902 1.751501 2.354408
v 2.955051 3.751153 2.389452
v 4.771819 1.747959 3.218046
v 4.758968 3.747611 3.253091
v 2.104352 1.714344 4.157988
v 2.091501 3.713995 4.193032
v 3.908269 1.710801 5.021626
v 3.895418 3.710453 5.056670
vt 0.625000 0.000000
vt 0.375000 0.250000
vt 0.375000 0.000000
vt 0.625000 0.250000
vt 0.375000 0.500000
vt 0.625000 0.500000
vt 0.375000 0.750000
vt 0.625000 0.750000
vt 0.375000 1.000000
vt 0.125000 0.750000
vt 0.125000 0.500000
vt 0.875000 0.500000
vt 0.625000 1.000000
vt 0.875000 0.750000
vn 0.4318 0.0186 -0.9018
vn 0.9020 -0.0018 0.4318
vn -0.4318 -0.0186 0.9018
vn -0.9020 0.0018 -0.4318
vn 0.0064 -0.9998 -0.0175
vn -0.0064 0.9998 0.0175
s off
f 2/1/1 3/2/1 1/3/1
f 4/4/2 7/5/2 3/2/2
f 8/6/3 5/7/3 7/5/3
f 6/8/4 1/9/4 5/7/4
f 7/5/5 1/10/5 3/11/5
f 4/12/6 6/8/6 8/6/6
f 2/1/1 4/4/1 3/2/1
f 4/4/2 8/6/2 7/5/2
f 8/6/3 6/8/3 5/7/3
f 6/8/4 2/13/4 1/9/4
f 7/5/5 5/7/5 1/10/5
f 4/12/6 2/14/6 6/8/6
v -10.000000 0.000000 10.000000
v 10.000000 0.000000 10.000000
v -10.000000 0.000000 -10.000000
v 10.000000 0.000000 -10.000000
vt 1.000000 0.000000
vt 0.000000 1.000000
vt 0.000000 0.000000
vt 1.000000 1.000000
vn 0.0000 1.0000 0.0000
s off
f 10/15/7 11/16/7 9/17/7
f 10/15/7 12/18/7 11/16/7
