# Blender v2.92.0 OBJ File: 'cubeanim.blend'
# www.blender.org
v -2.686649 0.002451 -0.240853
v -2.674775 2.002410 -0.245339
v -2.022467 -0.005724 -2.127330
v -2.010593 1.994235 -2.131816
v -0.800192 -0.007259 0.423365
v -0.788318 1.992700 0.418878
v -0.136010 -0.015435 -1.463112
v -0.124136 1.984525 -1.467598
vt 0.625000 0.000000
vt 0.375000 0.250000
vt 0.375000 0.000000
vt 0.625000 0.250000
vt 0.375000 0.500000
vt 0.625000 0.500000
vt 0.375000 0.750000
vt 0.625000 0.750000
vt 0.375000 1.000000
vt 0.125000 0.750000
vt 0.125000 0.500000
vt 0.875000 0.500000
vt 0.625000 1.000000
vt 0.875000 0.750000
vn -0.9432 0.0049 -0.3321
vn 0.3321 -0.0041 -0.9432
vn 0.9432 -0.0049 0.3321
vn -0.3321 0.0041 0.9432
vn -0.0059 -1.0000 0.0022
vn 0.0059 1.0000 -0.0022
s off
f 2/1/1 3/2/1 1/3/1
f 4/4/2 7/5/2 3/2/2
f 8/6/3 5/7/3 7/5/3
f 6/8/4 1/9/4 5/7/4
f 7/5/5 1/10/5 3/11/5
f 4/12/6 6/8/6 8/6/6
f 2/1/1 4/4/1 3/2/1
f 4/4/2 8/6/2 7/5/2
f 8/6/3 6/8/3 5/7/3
f 6/8/4 2/13/4 1/9/4
f 7/5/5 5/7/5 1/10/5
f 4/12/6 2/14/6 6/8/6
v -10.000000 0.000000 10.000000
v 10.000000 0.000000 10.000000
v -10.000000 0.000000 -10.000000
v 10.000000 0.000000 -10.000000
vt 1.000000 0.000000
vt 0.000000 1.000000
vt 0.000000 0.000000
vt 1.000000 1.000000
vn 0.0000 1.0000 0.0000
s off
f 10/15/7 11/16/7 9/17/7
f 10/15/7 12/18/7 11/16/7
