# Blender v2.92.0 OBJ File: 'cubeanim.blend'
# www.blender.org
v -3.310111 -0.001652 -0.703924
v -3.304963 1.998322 -0.712735
v -3.233055 -0.010655 -2.702419
v -3.227907 1.989319 -2.711230
v -1.311603 -0.006457 -0.626846
v -1.306454 1.993517 -0.635657
v -1.234547 -0.015460 -2.625340
v -1.229398 1.984514 -2.634152
vt 0.625000 0.000000
vt 0.375000 0.250000
vt 0.375000 0.000000
vt 0.625000 0.250000
vt 0.375000 0.500000
vt 0.625000 0.500000
vt 0.375000 0.750000
vt 0.625000 0.750000
vt 0.375000 1.000000
vt 0.125000 0.750000
vt 0.125000 0.500000
vt 0.875000 0.500000
vt 0.625000 1.000000
vt 0.875000 0.750000
vn -0.9993 0.0024 -0.0385
vn 0.0385 -0.0045 -0.9992
vn 0.9993 -0.0024 0.0385
vn -0.0385 0.0045 0.9992
vn -0.0026 -1.0000 0.0044
vn 0.0026 1.0000 -0.0044
s off
f 2/1/1 3/2/1 1/3/1
f 4/4/2 7/5/2 3/2/2
f 8/6/3 5/7/3 7/5/3
f 6/8/4 1/9/4 5/7/4
f 7/5/5 1/10/5 3/11/5
f 4/12/6 6/8/6 8/6/6
f 2/1/1 4/4/1 3/2/1
f 4/4/2 8/6/2 7/5/2
f 8/6/3 6/8/3 5/7/3
f 6/8/4 2/13/4 1/9/4
f 7/5/5 5/7/5 1/10/5
f 4/12/6 2/14/6 6/8/6
v -10.000000 0.000000 10.000000
v 10.000000 0.000000 10.000000
v -10.000000 0.000000 -10.000000
v 10.000000 0.000000 -10.000000
vt 1.000000 0.000000
vt 0.000000 1.000000
vt 0.000000 0.000000
vt 1.000000 1.000000
vn 0.0000 1.0000 0.0000
s off
f 10/15/7 11/16/7 9/17/7
f 10/15/7 12/18/7 11/16/7
