# Blender v2.92.0 OBJ File: 'cubeanim.blend'
# www.blender.org
v -2.306426 0.004650 -0.018176
v -2.291893 2.004597 -0.019058
v -1.349039 -0.003082 -1.774123
v -1.334506 1.996866 -1.775006
v -0.550522 -0.007687 0.939242
v -0.535989 1.992260 0.938359
v 0.406865 -0.015418 -0.816705
v 0.421398 1.984529 -0.817588
vt 0.625000 0.000000
vt 0.375000 0.250000
vt 0.375000 0.000000
vt 0.625000 0.250000
vt 0.375000 0.500000
vt 0.625000 0.500000
vt 0.375000 0.750000
vt 0.625000 0.750000
vt 0.375000 1.000000
vt 0.125000 0.750000
vt 0.125000 0.500000
vt 0.875000 0.500000
vt 0.625000 1.000000
vt 0.875000 0.750000
vn -0.8780 0.0062 -0.4787
vn 0.4787 -0.0039 -0.8780
vn 0.8780 -0.0062 0.4787
vn -0.4787 0.0039 0.8780
vn -0.0073 -1.0000 0.0004
vn 0.0073 1.0000 -0.0004
s off
f 2/1/1 3/2/1 1/3/1
f 4/4/2 7/5/2 3/2/2
f 8/6/3 5/7/3 7/5/3
f 6/8/4 1/9/4 5/7/4
f 7/5/5 1/10/5 3/11/5
f 4/12/6 6/8/6 8/6/6
f 2/1/1 4/4/1 3/2/1
f 4/4/2 8/6/2 7/5/2
f 8/6/3 6/8/3 5/7/3
f 6/8/4 2/13/4 1/9/4
f 7/5/5 5/7/5 1/10/5
f 4/12/6 2/14/6 6/8/6
v -10.000000 0.000000 10.000000
v 10.000000 0.000000 10.000000
v -10.000000 0.000000 -10.000000
v 10.000000 0.000000 -10.000000
vt 1.000000 0.000000
vt 0.000000 1.000000
vt 0.000000 0.000000
vt 1.000000 1.000000
vn 0.0000 1.0000 0.0000
s off
f 10/15/7 11/16/7 9/17/7
f 10/15/7 12/18/7 11/16/7
