# Blender v2.92.0 OBJ File: 'cubeanim.blend'
# www.blender.org
v 0.159060 0.015761 1.062569
v 0.170996 2.015589 1.085844
v 2.090742 0.010263 0.544324
v 2.102678 2.010092 0.567599
v 0.677197 -0.009812 2.994118
v 0.689133 1.990017 3.017392
v 2.608878 -0.015310 2.475873
v 2.620814 1.984519 2.499148
vt 0.625000 0.000000
vt 0.375000 0.250000
vt 0.375000 0.000000
vt 0.625000 0.250000
vt 0.375000 0.500000
vt 0.625000 0.500000
vt 0.375000 0.750000
vt 0.625000 0.750000
vt 0.375000 1.000000
vt 0.125000 0.750000
vt 0.125000 0.500000
vt 0.875000 0.500000
vt 0.625000 1.000000
vt 0.875000 0.750000
vn -0.2591 0.0128 -0.9658
vn 0.9658 -0.0027 -0.2591
vn 0.2591 -0.0128 0.9658
vn -0.9658 0.0027 0.2591
vn -0.0060 -0.9999 -0.0116
vn 0.0060 0.9999 0.0116
s off
f 2/1/1 3/2/1 1/3/1
f 4/4/2 7/5/2 3/2/2
f 8/6/3 5/7/3 7/5/3
f 6/8/4 1/9/4 5/7/4
f 7/5/5 1/10/5 3/11/5
f 4/12/6 6/8/6 8/6/6
f 2/1/1 4/4/1 3/2/1
f 4/4/2 8/6/2 7/5/2
f 8/6/3 6/8/3 5/7/3
f 6/8/4 2/13/4 1/9/4
f 7/5/5 5/7/5 1/10/5
f 4/12/6 2/14/6 6/8/6
v -10.000000 0.000000 10.000000
v 10.000000 0.000000 10.000000
v -10.000000 0.000000 -10.000000
v 10.000000 0.000000 -10.000000
vt 1.000000 0.000000
vt 0.000000 1.000000
vt 0.000000 0.000000
vt 1.000000 1.000000
vn 0.0000 1.0000 0.0000
s off
f 10/15/7 11/16/7 9/17/7
f 10/15/7 12/18/7 11/16/7
