# Blender v2.92.0 OBJ File: 'cubeanim.blend'
# www.blender.org
v -0.909600 0.011432 0.626009
v -0.893122 2.011317 0.639649
v 0.766437 0.005064 -0.465256
v 0.782915 2.004950 -0.451616
v 0.181559 -0.008990 2.302003
v 0.198038 1.990895 2.315643
v 1.857596 -0.015358 1.210738
v 1.874074 1.984528 1.224378
vt 0.625000 0.000000
vt 0.375000 0.250000
vt 0.375000 0.000000
vt 0.625000 0.250000
vt 0.375000 0.500000
vt 0.625000 0.500000
vt 0.375000 0.750000
vt 0.625000 0.750000
vt 0.375000 1.000000
vt 0.125000 0.750000
vt 0.125000 0.500000
vt 0.875000 0.500000
vt 0.625000 1.000000
vt 0.875000 0.750000
vn -0.5456 0.0102 -0.8380
vn 0.8380 -0.0032 -0.5456
vn 0.5456 -0.0102 0.8380
vn -0.8380 0.0032 0.5456
vn -0.0082 -0.9999 -0.0068
vn 0.0082 0.9999 0.0068
s off
f 2/1/1 3/2/1 1/3/1
f 4/4/2 7/5/2 3/2/2
f 8/6/3 5/7/3 7/5/3
f 6/8/4 1/9/4 5/7/4
f 7/5/5 1/10/5 3/11/5
f 4/12/6 6/8/6 8/6/6
f 2/1/1 4/4/1 3/2/1
f 4/4/2 8/6/2 7/5/2
f 8/6/3 6/8/3 5/7/3
f 6/8/4 2/13/4 1/9/4
f 7/5/5 5/7/5 1/10/5
f 4/12/6 2/14/6 6/8/6
v -10.000000 0.000000 10.000000
v 10.000000 0.000000 10.000000
v -10.000000 0.000000 -10.000000
v 10.000000 0.000000 -10.000000
vt 1.000000 0.000000
vt 0.000000 1.000000
vt 0.000000 0.000000
vt 1.000000 1.000000
vn 0.0000 1.0000 0.0000
s off
f 10/15/7 11/16/7 9/17/7
f 10/15/7 12/18/7 11/16/7
